#define psf_width  448
#define psf_height 128
static unsigned char psf_bits[] = {
 0x00, 0x00, 0x00, 0x00, 0x00, 0x00, 0x00, 0x00, 0x00, 0x00, 0x00, 0x00,
 0x00, 0x00, 0x00, 0x00, 0x00, 0x00, 0x00, 0x00, 0x00, 0x00, 0x00, 0x00,
 0x00, 0x00, 0x00, 0x00, 0x00, 0x00, 0x00, 0x00, 0x00, 0x00, 0x00, 0x00,
 0x00, 0x00, 0x00, 0x00, 0x00, 0x00, 0x00, 0x00, 0x00, 0x00, 0x00, 0x00,
 0x00, 0x00, 0x00, 0x00, 0x00, 0x00, 0x00, 0x00, 0x00, 0x00, 0x00, 0x00,
 0x00, 0x00, 0x00, 0x00, 0x00, 0x00, 0x00, 0x00, 0x00, 0x00, 0x00, 0x00,
 0x00, 0x00, 0x00, 0x00, 0x00, 0x00, 0x00, 0x00, 0x00, 0x00, 0x00, 0x00,
 0x00, 0x00, 0x00, 0x00, 0x00, 0x00, 0x00, 0x00, 0x00, 0x00, 0x00, 0x00,
 0x00, 0x00, 0x00, 0x00, 0x00, 0x00, 0x00, 0x00, 0x00, 0x00, 0x00, 0x00,
 0x00, 0x00, 0x00, 0x00, 0x00, 0x00, 0x00, 0x00, 0x00, 0x00, 0x00, 0x00,
 0x00, 0x00, 0x00, 0x00, 0x00, 0x00, 0x00, 0x00, 0x00, 0x00, 0x00, 0x00,
 0x00, 0x00, 0x00, 0x00, 0x00, 0x00, 0x00, 0x00, 0x00, 0x00, 0x00, 0x00,
 0x00, 0x00, 0x00, 0x00, 0x00, 0x00, 0x00, 0x00, 0x00, 0x00, 0x00, 0x00,
 0x00, 0x00, 0x00, 0x00, 0x00, 0x00, 0x00, 0x00, 0x00, 0x00, 0x00, 0x00,
 0x00, 0x00, 0x00, 0x00, 0x00, 0x00, 0x00, 0x00, 0x00, 0x00, 0x00, 0x00,
 0x00, 0x00, 0x00, 0x00, 0x00, 0x00, 0x00, 0x00, 0x00, 0x00, 0x00, 0x00,
 0x00, 0x00, 0x00, 0x00, 0x00, 0x00, 0x00, 0x00, 0x00, 0x00, 0x00, 0x00,
 0x00, 0x00, 0x00, 0x00, 0x00, 0x00, 0x00, 0x00, 0x00, 0x00, 0x00, 0x00,
 0x00, 0x00, 0x00, 0x00, 0x00, 0x00, 0x00, 0x00, 0x00, 0x00, 0x00, 0x00,
 0x00, 0x00, 0x00, 0x00, 0x00, 0x00, 0x00, 0x00, 0x00, 0x00, 0x00, 0x00,
 0x00, 0x00, 0x00, 0x00, 0x00, 0x00, 0x00, 0x00, 0x00, 0x00, 0x00, 0x00,
 0x00, 0x00, 0x00, 0x00, 0x00, 0x00, 0x00, 0x00, 0x00, 0x00, 0x00, 0x00,
 0x00, 0x00, 0x00, 0x00, 0x00, 0x00, 0x00, 0x00, 0x00, 0x00, 0x00, 0x00,
 0x00, 0x00, 0x00, 0x00, 0x00, 0x00, 0x00, 0x00, 0x00, 0x00, 0x00, 0x00,
 0x00, 0x00, 0x00, 0x00, 0x00, 0x00, 0x00, 0x00, 0x00, 0x00, 0x00, 0x00,
 0x00, 0x00, 0x00, 0x00, 0x00, 0x00, 0x00, 0x00, 0x00, 0x00, 0x00, 0x00,
 0x00, 0x00, 0x00, 0x00, 0x00, 0x00, 0x00, 0x00, 0x00, 0x00, 0x00, 0x00,
 0x00, 0x00, 0x00, 0x00, 0x00, 0x00, 0x00, 0x00, 0x00, 0x00, 0x00, 0x00,
 0x00, 0x00, 0x00, 0x00, 0x00, 0x00, 0x00, 0x00, 0x00, 0x00, 0x00, 0x00,
 0x00, 0x00, 0x00, 0x00, 0x00, 0x00, 0x00, 0x00, 0x00, 0x00, 0x00, 0x00,
 0x00, 0x00, 0x00, 0x00, 0x00, 0x00, 0x00, 0x00, 0x00, 0x00, 0x00, 0x00,
 0x00, 0x00, 0x00, 0x00, 0x00, 0x00, 0x00, 0x00, 0x00, 0x00, 0x00, 0x00,
 0x00, 0x00, 0x00, 0x00, 0x00, 0x00, 0x00, 0x00, 0x00, 0x00, 0x00, 0x00,
 0x00, 0x00, 0x00, 0x00, 0x00, 0x00, 0x00, 0x00, 0x00, 0x00, 0x00, 0x00,
 0x00, 0x00, 0x00, 0x00, 0x00, 0x00, 0x00, 0x00, 0x00, 0x00, 0x00, 0x00,
 0x00, 0x00, 0x00, 0x00, 0x00, 0x00, 0x00, 0x00, 0x00, 0x00, 0x00, 0x00,
 0x00, 0x00, 0x00, 0x00, 0x00, 0x00, 0x00, 0x00, 0x00, 0x00, 0x00, 0x00,
 0x00, 0x00, 0x00, 0x00, 0x00, 0x00, 0x00, 0x00, 0x00, 0x00, 0x00, 0x00,
 0x00, 0x00, 0x00, 0x00, 0x00, 0x00, 0x00, 0x00, 0x00, 0x00, 0x00, 0x00,
 0x00, 0x00, 0x00, 0x00, 0x00, 0x00, 0x00, 0x00, 0x00, 0x00, 0x00, 0x00,
 0x00, 0x00, 0x00, 0x00, 0x00, 0x00, 0x00, 0x00, 0x00, 0x00, 0x00, 0x00,
 0x00, 0x00, 0x00, 0x00, 0x00, 0x00, 0x00, 0x00, 0x00, 0x00, 0x00, 0x00,
 0x00, 0x00, 0x00, 0x00, 0x00, 0x00, 0x00, 0x00, 0x00, 0x00, 0x00, 0x00,
 0x00, 0x00, 0x00, 0x00, 0x00, 0x00, 0x00, 0x00, 0x00, 0x00, 0x00, 0x00,
 0x00, 0x00, 0x00, 0x00, 0x00, 0x00, 0x00, 0x00, 0x00, 0x00, 0x00, 0x00,
 0x00, 0x00, 0x00, 0x00, 0x00, 0x00, 0x00, 0x00, 0x00, 0x00, 0x00, 0x00,
 0x00, 0x00, 0x00, 0x00, 0x00, 0x00, 0x00, 0x00, 0x00, 0x00, 0x00, 0x00,
 0x00, 0x00, 0x00, 0x00, 0x00, 0x00, 0x00, 0x00, 0x00, 0x00, 0x00, 0x00,
 0x00, 0x00, 0x00, 0x00, 0x00, 0x00, 0x00, 0x00, 0x00, 0x00, 0x00, 0x00,
 0x00, 0x00, 0x00, 0x00, 0x00, 0x00, 0x00, 0x00, 0x00, 0x00, 0x00, 0x00,
 0x00, 0x00, 0x00, 0x00, 0x00, 0x00, 0x00, 0x00, 0x00, 0x00, 0x00, 0x00,
 0x00, 0x00, 0x00, 0x00, 0x00, 0x00, 0x00, 0x00, 0x00, 0x00, 0x00, 0x00,
 0x00, 0x00, 0x00, 0x00, 0x00, 0x00, 0x00, 0x00, 0x00, 0x00, 0x00, 0x00,
 0x00, 0x00, 0x00, 0x00, 0x00, 0x00, 0x00, 0x00, 0x00, 0x00, 0x00, 0x00,
 0x00, 0x00, 0x00, 0x00, 0x00, 0x00, 0x00, 0x00, 0x00, 0x00, 0x00, 0x00,
 0x00, 0x00, 0x00, 0x00, 0x00, 0x00, 0x00, 0x00, 0x00, 0x00, 0x00, 0x00,
 0x00, 0x00, 0x00, 0x00, 0x00, 0x00, 0x00, 0x00, 0x00, 0x00, 0x00, 0x00,
 0x00, 0x00, 0x00, 0x00, 0x00, 0x00, 0x00, 0x00, 0x00, 0x00, 0x00, 0x00,
 0x00, 0x00, 0x00, 0x00, 0x00, 0x00, 0x00, 0x00, 0x00, 0x00, 0x00, 0x00,
 0x00, 0x00, 0x00, 0x00, 0x00, 0x00, 0x00, 0x00, 0x00, 0x00, 0x00, 0x00,
 0x00, 0x00, 0x00, 0x00, 0x00, 0x00, 0x00, 0x00, 0x00, 0x00, 0x00, 0x00,
 0x00, 0x00, 0x00, 0x00, 0x00, 0x00, 0x00, 0x00, 0x00, 0x00, 0x00, 0x00,
 0x00, 0x00, 0x00, 0x00, 0x00, 0x00, 0x00, 0x00, 0x00, 0x00, 0x00, 0x00,
 0x00, 0x00, 0x00, 0x00, 0x00, 0x00, 0x00, 0x00, 0x00, 0x00, 0x00, 0x00,
 0x00, 0x00, 0x00, 0x00, 0x00, 0x00, 0x00, 0x00, 0x00, 0x00, 0x00, 0x00,
 0x00, 0x00, 0x00, 0x00, 0x00, 0x00, 0x00, 0x00, 0x00, 0x00, 0x00, 0x00,
 0x00, 0x00, 0x00, 0x00, 0x00, 0x00, 0x00, 0x00, 0x00, 0x00, 0x00, 0x00,
 0x00, 0x00, 0x00, 0x00, 0x00, 0x00, 0x00, 0x00, 0x00, 0x00, 0x00, 0x00,
 0x00, 0x00, 0x00, 0x00, 0x00, 0x00, 0x00, 0x00, 0x00, 0x00, 0x00, 0x00,
 0x00, 0x00, 0x00, 0x00, 0x00, 0x00, 0x00, 0x00, 0x00, 0x00, 0x00, 0x00,
 0x00, 0x00, 0x00, 0x00, 0x00, 0x00, 0x00, 0x00, 0x00, 0x00, 0x00, 0x00,
 0x00, 0x00, 0x00, 0x00, 0x00, 0x00, 0x00, 0x00, 0x00, 0x00, 0x00, 0x00,
 0x00, 0x00, 0x00, 0x00, 0x00, 0x00, 0x00, 0x00, 0x00, 0x00, 0x00, 0x00,
 0x00, 0x00, 0x00, 0x00, 0x00, 0x00, 0x00, 0x00, 0x00, 0x00, 0x00, 0x00,
 0x00, 0x00, 0x00, 0x00, 0x00, 0x00, 0x00, 0x00, 0x00, 0x00, 0x00, 0x00,
 0x00, 0x00, 0x00, 0x00, 0x00, 0x00, 0x00, 0x00, 0x00, 0x00, 0x00, 0x00,
 0x00, 0x00, 0x00, 0x00, 0x00, 0x00, 0x00, 0x00, 0x00, 0x00, 0x00, 0x00,
 0x00, 0x00, 0x00, 0x00, 0x00, 0x00, 0x00, 0x00, 0x00, 0x00, 0x00, 0x00,
 0x00, 0x00, 0x00, 0x00, 0x00, 0x00, 0x00, 0x00, 0x00, 0x00, 0x00, 0x00,
 0x00, 0x00, 0x00, 0x00, 0x00, 0x00, 0x00, 0x00, 0x00, 0x00, 0x00, 0x00,
 0x00, 0x00, 0x00, 0x00, 0x00, 0x00, 0x00, 0x00, 0x00, 0x00, 0x00, 0x00,
 0x00, 0x00, 0x00, 0x00, 0x00, 0x00, 0x00, 0x00, 0x00, 0x00, 0x00, 0x00,
 0x00, 0x00, 0x00, 0x00, 0x00, 0x00, 0x00, 0x00, 0x00, 0x00, 0x00, 0x00,
 0x00, 0x00, 0x00, 0x00, 0x00, 0x00, 0x00, 0x00, 0x00, 0x00, 0x00, 0x00,
 0x00, 0x00, 0x00, 0x00, 0x00, 0x00, 0x00, 0x08, 0x00, 0x00, 0x00, 0x00,
 0x00, 0x00, 0x00, 0x00, 0x00, 0x00, 0x00, 0x00, 0x00, 0x00, 0x00, 0x00,
 0x00, 0x00, 0x00, 0x00, 0x00, 0x00, 0x00, 0x00, 0x00, 0x00, 0x00, 0x00,
 0x00, 0x00, 0x00, 0x00, 0x00, 0x00, 0x00, 0x00, 0x00, 0x00, 0x00, 0x00,
 0x00, 0x00, 0x00, 0x00, 0x00, 0x00, 0x00, 0x00, 0x00, 0x80, 0x00, 0xa0,
 0x00, 0xa0, 0x00, 0x08, 0x00, 0x03, 0x81, 0x00, 0x08, 0x00, 0x04, 0x80,
 0x00, 0x80, 0x00, 0x00, 0x00, 0x00, 0x00, 0x00, 0x00, 0x00, 0x20, 0x00,
 0x0c, 0x00, 0x02, 0xc0, 0x00, 0x30, 0x00, 0x10, 0x80, 0x07, 0x80, 0x01,
 0x78, 0x00, 0x0c, 0x00, 0x03, 0x00, 0x00, 0x00, 0x00, 0x00, 0x00, 0x00,
 0x00, 0x00, 0x30, 0x00, 0x00, 0x80, 0x00, 0xa0, 0x00, 0xa0, 0x00, 0x0c,
 0x80, 0x84, 0x40, 0x01, 0x08, 0x00, 0x04, 0x80, 0x00, 0xa0, 0x02, 0x00,
 0x00, 0x00, 0x00, 0x00, 0x00, 0x00, 0x20, 0x00, 0x12, 0x00, 0x03, 0x20,
 0x01, 0x48, 0x00, 0x18, 0x80, 0x00, 0x40, 0x00, 0x48, 0x00, 0x12, 0x80,
 0x04, 0x00, 0x00, 0x00, 0x00, 0x20, 0x00, 0x00, 0x20, 0x00, 0x48, 0x00,
 0x00, 0x80, 0x00, 0xa0, 0x00, 0xa0, 0x00, 0x12, 0x80, 0x44, 0x40, 0x01,
 0x08, 0x00, 0x02, 0x00, 0x01, 0xc0, 0x01, 0x00, 0x00, 0x00, 0x00, 0x00,
 0x00, 0x00, 0x20, 0x00, 0x12, 0x00, 0x02, 0x00, 0x01, 0x40, 0x00, 0x18,
 0x80, 0x00, 0x20, 0x00, 0x40, 0x00, 0x12, 0x80, 0x04, 0x00, 0x00, 0x00,
 0x00, 0x10, 0x00, 0x00, 0x40, 0x00, 0x40, 0x00, 0x00, 0x80, 0x00, 0x00,
 0x00, 0xf8, 0x01, 0x12, 0x00, 0x23, 0x40, 0x01, 0x00, 0x00, 0x02, 0x00,
 0x01, 0xa0, 0x02, 0x20, 0x00, 0x00, 0x00, 0x00, 0x00, 0x00, 0x10, 0x00,
 0x12, 0x00, 0x02, 0x00, 0x01, 0x40, 0x00, 0x14, 0x80, 0x00, 0x20, 0x00,
 0x20, 0x00, 0x12, 0x80, 0x04, 0x00, 0x00, 0x00, 0x00, 0x08, 0x80, 0x0f,
 0x80, 0x00, 0x40, 0x00, 0x00, 0x80, 0x00, 0x00, 0x00, 0x50, 0x00, 0x02,
 0x00, 0x10, 0x80, 0x1c, 0x00, 0x00, 0x02, 0x00, 0x01, 0x80, 0x00, 0x20,
 0x00, 0x00, 0x00, 0x00, 0x00, 0x00, 0x10, 0x00, 0x12, 0x00, 0x02, 0x80,
 0x00, 0x30, 0x00, 0x14, 0x80, 0x03, 0xe0, 0x00, 0x20, 0x00, 0x0c, 0x80,
 0x04, 0x20, 0x00, 0x08, 0x00, 0x04, 0x00, 0x00, 0x00, 0x01, 0x20, 0x00,
 0x00, 0x80, 0x00, 0x00, 0x00, 0x50, 0x00, 0x0c, 0x00, 0x08, 0x40, 0x09,
 0x00, 0x00, 0x02, 0x00, 0x01, 0x00, 0x00, 0xf8, 0x00, 0x00, 0xc0, 0x03,
 0x00, 0x00, 0x10, 0x00, 0x12, 0x00, 0x02, 0x80, 0x00, 0x40, 0x00, 0x12,
 0x00, 0x04, 0x20, 0x01, 0x20, 0x00, 0x12, 0x00, 0x07, 0x00, 0x00, 0x00,
 0x00, 0x02, 0x00, 0x00, 0x00, 0x02, 0x10, 0x00, 0x00, 0x80, 0x00, 0x00,
 0x00, 0xfc, 0x00, 0x10, 0x00, 0xc4, 0x20, 0x0a, 0x00, 0x00, 0x02, 0x00,
 0x01, 0x00, 0x00, 0x20, 0x00, 0x00, 0x00, 0x00, 0x00, 0x00, 0x08, 0x00,
 0x12, 0x00, 0x02, 0x40, 0x00, 0x40, 0x00, 0x1e, 0x00, 0x04, 0x20, 0x01,
 0x10, 0x00, 0x12, 0x00, 0x04, 0x00, 0x00, 0x00, 0x00, 0x04, 0x80, 0x0f,
 0x00, 0x01, 0x10, 0x00, 0x00, 0x00, 0x00, 0x00, 0x00, 0x28, 0x00, 0x10,
 0x00, 0x22, 0x21, 0x04, 0x00, 0x00, 0x02, 0x00, 0x01, 0x00, 0x00, 0x20,
 0x00, 0x00, 0x00, 0x00, 0x00, 0x00, 0x08, 0x00, 0x12, 0x00, 0x02, 0x40,
 0x00, 0x40, 0x00, 0x10, 0x00, 0x04, 0x20, 0x01, 0x10, 0x00, 0x12, 0x00,
 0x04, 0x00, 0x00, 0x00, 0x00, 0x08, 0x00, 0x00, 0x80, 0x00, 0x00, 0x00,
 0x00, 0x00, 0x00, 0x00, 0x00, 0x28, 0x00, 0x12, 0x00, 0x21, 0x21, 0x0a,
 0x00, 0x00, 0x02, 0x00, 0x01, 0x00, 0x00, 0x00, 0x00, 0x00, 0x00, 0x00,
 0x00, 0x00, 0x08, 0x00, 0x12, 0x00, 0x02, 0x20, 0x01, 0x48, 0x00, 0x10,
 0x80, 0x04, 0x20, 0x01, 0x10, 0x00, 0x12, 0x00, 0x02, 0x00, 0x00, 0x00,
 0x00, 0x10, 0x00, 0x00, 0x40, 0x00, 0x00, 0x00, 0x00, 0x80, 0x00, 0x00,
 0x00, 0x28, 0x00, 0x0c, 0x80, 0xc0, 0xc0, 0x11, 0x00, 0x00, 0x02, 0x00,
 0x01, 0x00, 0x00, 0x00, 0x00, 0x02, 0x00, 0x00, 0x20, 0x00, 0x04, 0x00,
 0x0c, 0x00, 0x07, 0xe0, 0x01, 0x30, 0x00, 0x10, 0x00, 0x03, 0xc0, 0x00,
 0x10, 0x00, 0x0c, 0x80, 0x01, 0x20, 0x00, 0x08, 0x00, 0x20, 0x00, 0x00,
 0x20, 0x00, 0x10, 0x00, 0x00, 0x00, 0x00, 0x00, 0x00, 0x00, 0x00, 0x04,
 0x00, 0x00, 0x00, 0x00, 0x00, 0x00, 0x02, 0x00, 0x01, 0x00, 0x00, 0x00,
 0x00, 0x02, 0x00, 0x00, 0x00, 0x00, 0x04, 0x00, 0x00, 0x00, 0x00, 0x00,
 0x00, 0x00, 0x00, 0x00, 0x00, 0x00, 0x00, 0x00, 0x00, 0x00, 0x00, 0x00,
 0x00, 0x00, 0x00, 0x08, 0x00, 0x00, 0x00, 0x00, 0x00, 0x00, 0x00, 0x00,
 0x00, 0x00, 0x00, 0x00, 0x00, 0x00, 0x00, 0x04, 0x00, 0x00, 0x00, 0x00,
 0x00, 0x00, 0x04, 0x80, 0x00, 0x00, 0x00, 0x00, 0x00, 0x01, 0x00, 0x00,
 0x00, 0x00, 0x04, 0x00, 0x00, 0x00, 0x00, 0x00, 0x00, 0x00, 0x00, 0x00,
 0x00, 0x00, 0x00, 0x00, 0x00, 0x00, 0x00, 0x00, 0x00, 0x00, 0x00, 0x04,
 0x00, 0x00, 0x00, 0x00, 0x00, 0x00, 0x00, 0x00, 0x00, 0x00, 0x00, 0x00,
 0x00, 0x00, 0x00, 0x00, 0x00, 0x00, 0x00, 0x00, 0x00, 0x00, 0x04, 0x80,
 0x00, 0x00, 0x00, 0x00, 0x00, 0x00, 0x00, 0x00, 0x00, 0x00, 0x00, 0x00,
 0x00, 0x00, 0x00, 0x00, 0x00, 0x00, 0x00, 0x00, 0x00, 0x00, 0x00, 0x00,
 0x00, 0x00, 0x00, 0x00, 0x00, 0x00, 0x00, 0x00, 0x00, 0x00, 0x00, 0x00,
 0x00, 0x00, 0x00, 0x00, 0x00, 0x00, 0x00, 0x00, 0x00, 0x00, 0x00, 0x00,
 0x00, 0x00, 0x00, 0x00, 0x00, 0x00, 0x00, 0x00, 0x00, 0x00, 0x00, 0x00,
 0x00, 0x00, 0x00, 0x00, 0x00, 0x00, 0x00, 0x00, 0x00, 0x00, 0x00, 0x00,
 0x00, 0x00, 0x00, 0x00, 0x00, 0x00, 0x00, 0x00, 0x00, 0x00, 0x00, 0x00,
 0x00, 0x00, 0x00, 0x00, 0x00, 0x00, 0x00, 0x00, 0x00, 0x00, 0x00, 0x00,
 0x00, 0x00, 0x00, 0x00, 0x00, 0x00, 0x00, 0x00, 0x00, 0x00, 0x00, 0x00,
 0x00, 0x00, 0x00, 0x00, 0x00, 0x00, 0x00, 0x00, 0x00, 0x00, 0x00, 0x00,
 0x00, 0x00, 0x00, 0x00, 0x00, 0x00, 0x00, 0x00, 0x00, 0x00, 0x00, 0x00,
 0x00, 0x00, 0x00, 0x00, 0x00, 0x00, 0x00, 0x00, 0x00, 0x00, 0x00, 0x00,
 0x00, 0x00, 0x00, 0x00, 0x00, 0x00, 0x00, 0x00, 0x00, 0x00, 0x00, 0x00,
 0x00, 0x00, 0x00, 0x00, 0x00, 0x00, 0x00, 0x00, 0x00, 0x00, 0x00, 0x00,
 0x00, 0x00, 0x00, 0x00, 0x00, 0x00, 0x00, 0x00, 0x00, 0x00, 0x00, 0x00,
 0x00, 0x00, 0x00, 0x00, 0x00, 0x00, 0x00, 0x00, 0x00, 0x00, 0x00, 0x00,
 0x00, 0x00, 0x00, 0x00, 0x00, 0x00, 0x00, 0x00, 0x00, 0x00, 0x00, 0x00,
 0x80, 0x00, 0x00, 0x00, 0xf8, 0x01, 0x04, 0xe0, 0x07, 0xe0, 0x05, 0x3e,
 0x80, 0x1f, 0xe0, 0x07, 0xe0, 0x05, 0xce, 0x81, 0x03, 0xc0, 0x01, 0xb8,
 0x03, 0x0e, 0x80, 0xc1, 0x60, 0x1c, 0xe0, 0x01, 0x3e, 0x00, 0x1e, 0xe0,
 0x03, 0xb0, 0x00, 0xff, 0x81, 0x73, 0x70, 0x1c, 0xdc, 0x76, 0x87, 0xc3,
 0x71, 0xf0, 0x0f, 0x18, 0x00, 0x01, 0x80, 0x01, 0x40, 0x01, 0x00, 0x00,
 0x04, 0x02, 0x04, 0x40, 0x08, 0x10, 0x06, 0xc4, 0x00, 0x11, 0x40, 0x04,
 0x10, 0x06, 0x84, 0x00, 0x01, 0x80, 0x00, 0x10, 0x01, 0x04, 0x00, 0x63,
 0xc0, 0x08, 0x10, 0x02, 0x44, 0x00, 0x21, 0x40, 0x04, 0xc8, 0x00, 0x11,
 0x01, 0x21, 0x20, 0x08, 0x88, 0x22, 0x02, 0x81, 0x20, 0x10, 0x04, 0x08,
 0x00, 0x01, 0x00, 0x01, 0x20, 0x02, 0x00, 0x00, 0xe2, 0x04, 0x0a, 0x40,
 0x08, 0x08, 0x04, 0x84, 0x00, 0x01, 0x40, 0x00, 0x08, 0x04, 0x84, 0x00,
 0x01, 0x80, 0x00, 0x90, 0x00, 0x04, 0x00, 0x63, 0xc0, 0x08, 0x08, 0x04,
 0x44, 0x80, 0x40, 0x40, 0x04, 0x88, 0x00, 0x10, 0x00, 0x21, 0x20, 0x08,
 0x88, 0x22, 0x84, 0x00, 0x11, 0x00, 0x02, 0x08, 0x00, 0x01, 0x00, 0x01,
 0x00, 0x00, 0x00, 0x00, 0x92, 0x04, 0x0a, 0x40, 0x08, 0x08, 0x00, 0x04,
 0x01, 0x09, 0x40, 0x02, 0x08, 0x00, 0x84, 0x00, 0x01, 0x80, 0x00, 0x50,
 0x00, 0x04, 0x00, 0x63, 0x40, 0x09, 0x08, 0x04, 0x44, 0x80, 0x40, 0x40,
 0x04, 0x08, 0x00, 0x10, 0x00, 0x21, 0x40, 0x04, 0x10, 0x11, 0x48, 0x00,
 0x11, 0x00, 0x02, 0x08, 0x00, 0x02, 0x00, 0x01, 0x00, 0x00, 0x00, 0x00,
 0x92, 0x04, 0x11, 0xc0, 0x07, 0x08, 0x00, 0x04, 0x01, 0x0f, 0xc0, 0x03,
 0x08, 0x00, 0xfc, 0x00, 0x01, 0x80, 0x00, 0x30, 0x00, 0x04, 0x00, 0x55,
 0x40, 0x09, 0x08, 0x04, 0x44, 0x80, 0x40, 0x40, 0x04, 0x30, 0x00, 0x10,
 0x00, 0x21, 0x40, 0x04, 0x10, 0x11, 0x30, 0x00, 0x0a, 0x00, 0x01, 0x08,
 0x00, 0x02, 0x00, 0x01, 0x00, 0x00, 0x00, 0x00, 0x92, 0x04, 0x11, 0x40,
 0x08, 0x08, 0x00, 0x04, 0x01, 0x09, 0x40, 0x02, 0x08, 0x0e, 0x84, 0x00,
 0x01, 0x80, 0x00, 0x50, 0x00, 0x04, 0x00, 0x55, 0x40, 0x0a, 0x08, 0x04,
 0x3c, 0x80, 0x40, 0xc0, 0x03, 0x40, 0x00, 0x10, 0x00, 0x21, 0x80, 0x02,
 0xa0, 0x0a, 0x30, 0x00, 0x04, 0x80, 0x00, 0x08, 0x00, 0x02, 0x00, 0x01,
 0x00, 0x00, 0x00, 0x00, 0x92, 0x04, 0x1f, 0x40, 0x08, 0x08, 0x00, 0x04,
 0x01, 0x01, 0x40, 0x00, 0x08, 0x04, 0x84, 0x00, 0x01, 0x80, 0x00, 0x90,
 0x00, 0x04, 0x00, 0x55, 0x40, 0x0a, 0x08, 0x04, 0x04, 0x80, 0x40, 0x40,
 0x02, 0x80, 0x00, 0x10, 0x00, 0x21, 0x80, 0x02, 0xa0, 0x0a, 0x48, 0x00,
 0x04, 0x40, 0x00, 0x08, 0x00, 0x04, 0x00, 0x01, 0x00, 0x00, 0x00, 0x00,
 0xe2, 0x84, 0x20, 0x40, 0x08, 0x08, 0x04, 0x84, 0x00, 0x01, 0x40, 0x00,
 0x08, 0x04, 0x84, 0x00, 0x01, 0x80, 0x00, 0x10, 0x01, 0x04, 0x00, 0x49,
 0x40, 0x0c, 0x08, 0x04, 0x04, 0x80, 0x40, 0x40, 0x04, 0x88, 0x00, 0x10,
 0x00, 0x21, 0x80, 0x02, 0xa0, 0x0a, 0x84, 0x00, 0x04, 0x40, 0x00, 0x08,
 0x00, 0x04, 0x00, 0x01, 0x00, 0x00, 0x00, 0x00, 0x04, 0x83, 0x20, 0x40,
 0x08, 0x10, 0x02, 0xc4, 0x00, 0x11, 0x40, 0x00, 0x10, 0x04, 0x84, 0x00,
 0x01, 0x90, 0x00, 0x10, 0x02, 0x84, 0x00, 0x49, 0x40, 0x0c, 0x10, 0x02,
 0x04, 0x00, 0x21, 0x40, 0x08, 0x98, 0x00, 0x10, 0x00, 0x21, 0x00, 0x01,
 0x40, 0x04, 0x02, 0x01, 0x04, 0x20, 0x08, 0x08, 0x00, 0x04, 0x00, 0x01,
 0x00, 0x00, 0x00, 0x00, 0x38, 0xc0, 0x71, 0xe0, 0x07, 0xe0, 0x01, 0x3e,
 0x80, 0x1f, 0xe0, 0x00, 0xe0, 0x03, 0xce, 0x81, 0x03, 0x70, 0x00, 0x38,
 0x07, 0xfe, 0x80, 0xeb, 0xe0, 0x08, 0xe0, 0x01, 0x0e, 0x00, 0x1e, 0xe0,
 0x18, 0x68, 0x00, 0x38, 0x00, 0x1e, 0x00, 0x01, 0x40, 0x04, 0x87, 0x03,
 0x0e, 0xf0, 0x0f, 0x08, 0x00, 0x08, 0x00, 0x01, 0x00, 0x00, 0x00, 0x00,
 0x00, 0x00, 0x00, 0x00, 0x00, 0x00, 0x00, 0x00, 0x00, 0x00, 0x00, 0x00,
 0x00, 0x00, 0x00, 0x00, 0x00, 0x00, 0x00, 0x00, 0x00, 0x00, 0x00, 0x00,
 0x00, 0x00, 0x00, 0x00, 0x00, 0x00, 0x18, 0x00, 0x00, 0x00, 0x00, 0x00,
 0x00, 0x00, 0x00, 0x00, 0x00, 0x00, 0x00, 0x00, 0x00, 0x00, 0x00, 0x08,
 0x00, 0x08, 0x00, 0x01, 0x00, 0x00, 0x00, 0x00, 0x00, 0x00, 0x00, 0x00,
 0x00, 0x00, 0x00, 0x00, 0x00, 0x00, 0x00, 0x00, 0x00, 0x00, 0x00, 0x00,
 0x00, 0x00, 0x00, 0x00, 0x00, 0x00, 0x00, 0x00, 0x00, 0x00, 0x00, 0x00,
 0x00, 0x00, 0x30, 0x00, 0x00, 0x00, 0x00, 0x00, 0x00, 0x00, 0x00, 0x00,
 0x00, 0x00, 0x00, 0x00, 0x00, 0x00, 0x00, 0x08, 0x00, 0x08, 0x00, 0x01,
 0x00, 0x00, 0x00, 0x00, 0x00, 0x00, 0x00, 0x00, 0x00, 0x00, 0x00, 0x00,
 0x00, 0x00, 0x00, 0x00, 0x00, 0x00, 0x00, 0x00, 0x00, 0x00, 0x00, 0x00,
 0x00, 0x00, 0x00, 0x00, 0x00, 0x00, 0x00, 0x00, 0x00, 0x00, 0x00, 0x00,
 0x00, 0x00, 0x00, 0x00, 0x00, 0x00, 0x00, 0x00, 0x00, 0x00, 0x00, 0x00,
 0x00, 0x00, 0x00, 0x18, 0x00, 0x00, 0x80, 0x01, 0x00, 0x00, 0xfc, 0x00,
 0x00, 0x00, 0x00, 0x00, 0x00, 0x00, 0x00, 0x00, 0x00, 0x00, 0x00, 0x00,
 0x00, 0x00, 0x00, 0x00, 0x00, 0x00, 0x00, 0x00, 0x00, 0x00, 0x00, 0x00,
 0x00, 0x00, 0x00, 0x00, 0x00, 0x00, 0x00, 0x00, 0x00, 0x00, 0x00, 0x00,
 0x00, 0x00, 0x00, 0x00, 0x00, 0x00, 0x00, 0x00, 0x00, 0x00, 0x00, 0x00,
 0x00, 0x00, 0x00, 0x00, 0x00, 0x00, 0x00, 0x00, 0x00, 0x00, 0x00, 0x00,
 0x00, 0x00, 0x00, 0x00, 0x00, 0x00, 0x00, 0x00, 0x00, 0x00, 0x00, 0x00,
 0x00, 0x00, 0x00, 0x00, 0x00, 0x00, 0x00, 0x00, 0x00, 0x00, 0x00, 0x00,
 0x00, 0x00, 0x00, 0x00, 0x00, 0x00, 0x00, 0x00, 0x00, 0x00, 0x00, 0x00,
 0x00, 0x00, 0x00, 0x00, 0x00, 0x00, 0x00, 0x00, 0x00, 0x00, 0x00, 0x00,
 0x00, 0x00, 0x00, 0x00, 0x01, 0x00, 0x00, 0x00, 0x00, 0x00, 0x00, 0x00,
 0x00, 0x00, 0x00, 0x00, 0x00, 0x00, 0x00, 0x00, 0x00, 0x00, 0x00, 0x00,
 0x00, 0x00, 0x00, 0x00, 0x00, 0x00, 0x00, 0x00, 0x00, 0x00, 0x00, 0x00,
 0x00, 0x00, 0x00, 0x00, 0x00, 0x00, 0x00, 0x00, 0x00, 0x00, 0x00, 0x00,
 0x00, 0x00, 0x00, 0x00, 0x00, 0x00, 0x00, 0x00, 0x00, 0x00, 0x00, 0x00,
 0x02, 0x00, 0x00, 0x30, 0x00, 0x00, 0x00, 0x30, 0x00, 0x00, 0xc0, 0x00,
 0x00, 0x00, 0x03, 0x80, 0x00, 0x20, 0x00, 0x0c, 0x00, 0x03, 0x00, 0x00,
 0x00, 0x00, 0x00, 0x00, 0x00, 0x00, 0x00, 0x00, 0x00, 0x00, 0x00, 0x00,
 0x00, 0x00, 0x00, 0x00, 0x00, 0x00, 0x00, 0x00, 0x00, 0x00, 0x00, 0x20,
 0x00, 0x02, 0x80, 0x00, 0xc0, 0x04, 0x00, 0x00, 0x04, 0x00, 0x00, 0x20,
 0x00, 0x00, 0x00, 0x20, 0x00, 0x00, 0x20, 0x00, 0x00, 0x00, 0x02, 0x00,
 0x00, 0x00, 0x00, 0x08, 0x00, 0x02, 0x00, 0x00, 0x00, 0x00, 0x00, 0x00,
 0x00, 0x00, 0x00, 0x00, 0x00, 0x00, 0x00, 0x02, 0x00, 0x00, 0x00, 0x00,
 0x00, 0x00, 0x00, 0x00, 0x00, 0x00, 0x00, 0x10, 0x00, 0x02, 0x00, 0x01,
 0x20, 0x03, 0x18, 0x00, 0x00, 0x00, 0x00, 0x20, 0x00, 0x00, 0x00, 0x20,
 0x00, 0x00, 0x20, 0x00, 0x00, 0x00, 0x02, 0x00, 0x00, 0x00, 0x00, 0x08,
 0x00, 0x02, 0x00, 0x00, 0x00, 0x00, 0x00, 0x00, 0x00, 0x00, 0x00, 0x00,
 0x00, 0x00, 0x00, 0x02, 0x00, 0x00, 0x00, 0x00, 0x00, 0x00, 0x00, 0x00,
 0x00, 0x00, 0x00, 0x10, 0x00, 0x02, 0x00, 0x01, 0x00, 0x00, 0x18, 0x00,
 0x00, 0x00, 0x03, 0xa0, 0x01, 0x70, 0x00, 0x3c, 0x00, 0x07, 0x70, 0x00,
 0xf0, 0x01, 0x1a, 0xc0, 0x00, 0x30, 0x00, 0xc8, 0x00, 0x02, 0xc0, 0x12,
 0xb0, 0x01, 0x70, 0x00, 0x1b, 0x00, 0x0f, 0xb0, 0x00, 0x30, 0x00, 0x07,
 0xc0, 0x0c, 0x70, 0x07, 0xec, 0x06, 0x77, 0xc0, 0x1d, 0xe0, 0x03, 0x10,
 0x00, 0x02, 0x00, 0x01, 0x00, 0x00, 0x18, 0x00, 0x00, 0x00, 0x04, 0x60,
 0x02, 0x88, 0x00, 0x22, 0x80, 0x08, 0x20, 0x00, 0x88, 0x00, 0x26, 0x80,
 0x00, 0x20, 0x00, 0x48, 0x00, 0x02, 0x80, 0x2d, 0x60, 0x02, 0x88, 0x00,
 0x26, 0x80, 0x08, 0x60, 0x00, 0x08, 0x00, 0x02, 0x80, 0x08, 0x20, 0x02,
 0x44, 0x04, 0x22, 0x80, 0x08, 0x20, 0x02, 0x10, 0x00, 0x02, 0x00, 0x01,
 0x00, 0x00, 0x18, 0x00, 0x00, 0x00, 0x07, 0x20, 0x02, 0x08, 0x00, 0x22,
 0x80, 0x08, 0x20, 0x00, 0x88, 0x00, 0x22, 0x80, 0x00, 0x20, 0x00, 0x28,
 0x00, 0x02, 0x80, 0x24, 0x20, 0x02, 0x88, 0x00, 0x22, 0x80, 0x08, 0x20,
 0x00, 0x08, 0x00, 0x02, 0x80, 0x08, 0x20, 0x02, 0x44, 0x04, 0x14, 0x80,
 0x08, 0x00, 0x01, 0x10, 0x00, 0x02, 0x00, 0x01, 0x00, 0x00, 0x18, 0x00,
 0x00, 0x80, 0x04, 0x20, 0x02, 0x08, 0x00, 0x22, 0x80, 0x0f, 0x20, 0x00,
 0x88, 0x00, 0x22, 0x80, 0x00, 0x20, 0x00, 0x38, 0x00, 0x02, 0x80, 0x24,
 0x20, 0x02, 0x88, 0x00, 0x22, 0x80, 0x08, 0x20, 0x00, 0x10, 0x00, 0x02,
 0x80, 0x08, 0x40, 0x01, 0xa8, 0x02, 0x08, 0x00, 0x05, 0x80, 0x00, 0x08,
 0x00, 0x02, 0x00, 0x02, 0x00, 0x00, 0x18, 0x00, 0x00, 0x80, 0x04, 0x20,
 0x02, 0x08, 0x00, 0x22, 0x80, 0x00, 0x20, 0x00, 0x70, 0x00, 0x22, 0x80,
 0x00, 0x20, 0x00, 0x48, 0x00, 0x02, 0x80, 0x24, 0x20, 0x02, 0x88, 0x00,
 0x22, 0x80, 0x08, 0x20, 0x00, 0x20, 0x00, 0x02, 0x80, 0x08, 0x40, 0x01,
 0xa8, 0x02, 0x14, 0x00, 0x05, 0x40, 0x00, 0x10, 0x00, 0x02, 0x00, 0x01,
 0x00, 0x00, 0x18, 0x00, 0x00, 0x80, 0x04, 0x20, 0x02, 0x88, 0x00, 0x22,
 0x80, 0x08, 0x20, 0x00, 0x08, 0x00, 0x22, 0x80, 0x00, 0x20, 0x00, 0x88,
 0x00, 0x02, 0x80, 0x24, 0x20, 0x02, 0x88, 0x00, 0x22, 0x80, 0x08, 0x20,
 0x00, 0x20, 0x00, 0x02, 0x80, 0x0c, 0x80, 0x00, 0x10, 0x01, 0x22, 0x00,
 0x02, 0x20, 0x02, 0x10, 0x00, 0x02, 0x00, 0x01, 0x00, 0x00, 0x18, 0x00,
 0x00, 0x00, 0x0b, 0xc0, 0x01, 0x70, 0x00, 0x3c, 0x00, 0x07, 0x60, 0x00,
 0xf0, 0x00, 0x66, 0x80, 0x01, 0x20, 0x00, 0x98, 0x01, 0x06, 0x80, 0x6d,
 0x60, 0x06, 0x70, 0x00, 0x1e, 0x00, 0x0f, 0x60, 0x00, 0x18, 0x00, 0x04,
 0x00, 0x1b, 0x80, 0x00, 0x10, 0x01, 0x77, 0x00, 0x02, 0xe0, 0x03, 0x10,
 0x00, 0x02, 0x00, 0x01, 0x00, 0x00, 0x18, 0x00, 0x00, 0x00, 0x00, 0x00,
 0x00, 0x00, 0x00, 0x00, 0x00, 0x00, 0x00, 0x00, 0x08, 0x01, 0x00, 0x00,
 0x00, 0x20, 0x00, 0x00, 0x00, 0x00, 0x00, 0x00, 0x00, 0x00, 0x00, 0x00,
 0x02, 0x00, 0x08, 0x00, 0x00, 0x00, 0x00, 0x00, 0x00, 0x00, 0x00, 0x00,
 0x00, 0x00, 0x00, 0x00, 0x01, 0x00, 0x00, 0x10, 0x00, 0x02, 0x00, 0x01,
 0x00, 0x00, 0x00, 0x00, 0x00, 0x00, 0x00, 0x00, 0x00, 0x00, 0x00, 0x00,
 0x00, 0x00, 0x00, 0x00, 0x08, 0x01, 0x00, 0x00, 0x00, 0x20, 0x00, 0x00,
 0x00, 0x00, 0x00, 0x00, 0x00, 0x00, 0x00, 0x00, 0x02, 0x00, 0x08, 0x00,
 0x00, 0x00, 0x00, 0x00, 0x00, 0x00, 0x00, 0x00, 0x00, 0x00, 0x00, 0x40,
 0x01, 0x00, 0x00, 0x10, 0x00, 0x02, 0x00, 0x01, 0x00, 0x00, 0x00, 0x00,
 0x00, 0x00, 0x00, 0x00, 0x00, 0x00, 0x00, 0x00, 0x00, 0x00, 0x00, 0x00,
 0xf0, 0x00, 0x00, 0x00, 0x00, 0x10, 0x00, 0x00, 0x00, 0x00, 0x00, 0x00,
 0x00, 0x00, 0x00, 0x00, 0x07, 0x00, 0x1c, 0x00, 0x00, 0x00, 0x00, 0x00,
 0x00, 0x00, 0x00, 0x00, 0x00, 0x00, 0x00, 0xc0, 0x00, 0x00, 0x00, 0x20,
 0x00, 0x02, 0x80, 0x00, 0x00, 0x00, 0x00, 0x00, 0x00, 0x00, 0x00, 0x00,
 0x00, 0x00, 0x00, 0x00, 0x00, 0x00, 0x00, 0x00, 0x00, 0x00, 0x00, 0x00,
 0x00, 0x00, 0x00, 0x00, 0x00, 0x00, 0x00, 0x00, 0x00, 0x00, 0x00, 0x00,
 0x00, 0x00, 0x00, 0x00, 0x00, 0x00, 0x00, 0x00, 0x00, 0x00, 0x00, 0x00,
 0x00, 0x00, 0x00, 0x00, 0x00, 0x00, 0x00, 0x00, 0x00, 0x00, 0x00, 0x00,
 0x00, 0x00, 0x00, 0x00, 0x00, 0x00, 0x00, 0x00, 0x00, 0x00, 0x00, 0x00,
 0x00, 0x00, 0x00, 0x00, 0x00, 0x00, 0x00, 0x00, 0x00, 0x00, 0x00, 0x00,
 0x00, 0x00, 0x00, 0x00, 0x00, 0x00, 0x00, 0x00, 0x00, 0x00, 0x00, 0x00,
 0x00, 0x00, 0x00, 0x00, 0x00, 0x00, 0x00, 0x00, 0x00, 0x00, 0x00, 0x00,
 0x00, 0x00, 0x00, 0x00, 0x00, 0x00, 0x00, 0x00, 0x00, 0x00, 0x00, 0x00,
 0x00, 0x00, 0x00, 0x00, 0x00, 0x00, 0x00, 0x00, 0x00, 0x00, 0x00, 0x00,
 0x00, 0x00, 0x00, 0x00, 0x00, 0x00, 0x00, 0x00, 0x00, 0x00, 0x00, 0x00,
 0x00, 0x00, 0x00, 0x00, 0x00, 0x00, 0x00, 0x00, 0x00, 0x00, 0x00, 0x00,
 0x00, 0x00, 0x00, 0x00, 0x00, 0x00, 0x00, 0x00, 0x00, 0x00, 0x00, 0x00,
 0x00, 0x00, 0x00, 0x00, 0x00, 0x00, 0x00, 0x00, 0x00, 0x00, 0x00, 0x00,
 0x00, 0x00, 0x00, 0x00, 0x00, 0x00, 0x00, 0x00, 0x00, 0x00, 0x00, 0x00,
 0x00, 0x00, 0x00, 0x00, 0x00, 0x00, 0x00, 0x00, 0x00, 0x00, 0x00, 0x00,
 0x00, 0x00, 0x01, 0x20, 0x00, 0x00, 0x00, 0x00, 0x00, 0x00, 0x00, 0x00,
 0x00, 0x00, 0x00, 0x00, 0x00, 0x00, 0x00, 0x00, 0x00, 0x00, 0x00, 0x00,
 0x00, 0x00, 0x00, 0x00, 0x06, 0x80, 0x01, 0x60, 0x00, 0x18, 0x00, 0x06,
 0x80, 0x01, 0x60, 0x00, 0x18, 0x00, 0x06, 0x80, 0x01, 0x60, 0x00, 0x18,
 0x00, 0x06, 0x80, 0x01, 0x60, 0x00, 0x18, 0x00, 0x06, 0x80, 0x00, 0x20,
 0x00, 0x18, 0x00, 0x06, 0x80, 0x01, 0x60, 0x00, 0x18, 0x00, 0x06, 0x80,
 0x01, 0x60, 0x00, 0x18, 0x00, 0x06, 0x80, 0x01, 0x60, 0x00, 0x18, 0x00,
 0x06, 0x80, 0x01, 0x60, 0x00, 0x18, 0x00, 0x06, 0x80, 0x01, 0x60, 0x00,
 0x18, 0x00, 0x06, 0x80, 0x01, 0x60, 0x00, 0x18, 0x00, 0x06, 0x80, 0x01,
 0x60, 0x00, 0x18, 0x00, 0x06, 0x80, 0x00, 0x10, 0x00, 0x18, 0x00, 0x06,
 0x80, 0x01, 0x60, 0x00, 0x18, 0x00, 0x06, 0x80, 0x01, 0x60, 0x00, 0x18,
 0x00, 0x06, 0x80, 0x01, 0x60, 0x00, 0x18, 0x00, 0x06, 0x80, 0x01, 0x60,
 0x00, 0x18, 0x00, 0x06, 0x80, 0x01, 0x60, 0x00, 0x18, 0x00, 0x06, 0x80,
 0x01, 0x60, 0x00, 0x18, 0x00, 0x06, 0x80, 0x01, 0x60, 0x00, 0x18, 0x00,
 0x06, 0x00, 0x00, 0x00, 0x00, 0x18, 0x00, 0x06, 0x80, 0x01, 0x60, 0x00,
 0x18, 0x00, 0x06, 0x80, 0x01, 0x60, 0x00, 0x18, 0x00, 0x06, 0x80, 0x01,
 0x60, 0x00, 0x18, 0x00, 0x06, 0x80, 0x01, 0x60, 0x00, 0x18, 0x00, 0x06,
 0x80, 0x01, 0x60, 0x00, 0x18, 0x00, 0x06, 0x80, 0x01, 0x60, 0x00, 0x18,
 0x00, 0x06, 0x80, 0x01, 0x60, 0x00, 0x18, 0x00, 0x06, 0x00, 0x00, 0x00,
 0x00, 0x18, 0x00, 0x06, 0x80, 0x01, 0x60, 0x00, 0x18, 0x00, 0x06, 0x80,
 0x01, 0x60, 0x00, 0x18, 0x00, 0x06, 0x80, 0x01, 0x60, 0x00, 0x18, 0x00,
 0x06, 0x80, 0x01, 0x60, 0x00, 0x18, 0x00, 0x06, 0x80, 0x01, 0x60, 0x00,
 0x18, 0x00, 0x06, 0x80, 0x01, 0x60, 0x00, 0x18, 0x00, 0x06, 0x80, 0x01,
 0x60, 0x00, 0x18, 0x00, 0x06, 0x00, 0x00, 0x00, 0x00, 0x18, 0x00, 0x06,
 0x80, 0x01, 0x60, 0x00, 0x18, 0x00, 0x06, 0x80, 0x01, 0x60, 0x00, 0x18,
 0x00, 0x06, 0x80, 0x01, 0x60, 0x00, 0x18, 0x00, 0x06, 0x80, 0x01, 0x60,
 0x00, 0x18, 0x00, 0x06, 0x80, 0x01, 0x60, 0x00, 0x18, 0x00, 0x06, 0x80,
 0x01, 0x60, 0x00, 0x18, 0x00, 0x06, 0x80, 0x01, 0x60, 0x00, 0x18, 0x00,
 0x06, 0x00, 0x00, 0x00, 0x00, 0x18, 0x00, 0x06, 0x80, 0x01, 0x60, 0x00,
 0x18, 0x00, 0x06, 0x80, 0x01, 0x60, 0x00, 0x18, 0x00, 0x06, 0x80, 0x01,
 0x60, 0x00, 0x18, 0x00, 0x06, 0x80, 0x01, 0x60, 0x00, 0x18, 0x00, 0x06,
 0x80, 0x01, 0x60, 0x00, 0x18, 0x00, 0x06, 0x80, 0x01, 0x60, 0x00, 0x18,
 0x00, 0x06, 0x80, 0x01, 0x60, 0x00, 0x18, 0x00, 0x06, 0x00, 0x00, 0x00,
 0x00, 0x18, 0x00, 0x06, 0x80, 0x01, 0x60, 0x00, 0x18, 0x00, 0x06, 0x80,
 0x01, 0x60, 0x00, 0x18, 0x00, 0x06, 0x80, 0x01, 0x60, 0x00, 0x18, 0x00,
 0x06, 0x80, 0x01, 0x60, 0x00, 0x18, 0x00, 0x06, 0x80, 0x01, 0x60, 0x00,
 0x18, 0x00, 0x06, 0x80, 0x01, 0x60, 0x00, 0x18, 0x00, 0x06, 0x80, 0x01,
 0x60, 0x00, 0x18, 0x00, 0x06, 0x00, 0x00, 0x00, 0x00, 0x18, 0x00, 0x06,
 0x80, 0x01, 0x60, 0x00, 0x18, 0x00, 0x06, 0x80, 0x01, 0x60, 0x00, 0x18,
 0x00, 0x06, 0x80, 0x01, 0x60, 0x00, 0x18, 0x00, 0x06, 0x80, 0x01, 0x60,
 0x00, 0x18, 0x00, 0x06, 0x80, 0x01, 0x60, 0x00, 0x18, 0x00, 0x06, 0x80,
 0x01, 0x60, 0x00, 0x18, 0x00, 0x06, 0x80, 0x01, 0x60, 0x00, 0x18, 0x00,
 0x06, 0x00, 0x00, 0x00, 0x00, 0x18, 0x00, 0x06, 0x80, 0x01, 0x60, 0x00,
 0x18, 0x00, 0x06, 0x80, 0x01, 0x60, 0x00, 0x18, 0x00, 0x06, 0x80, 0x01,
 0x60, 0x00, 0x18, 0x00, 0x00, 0x00, 0x00, 0x00, 0x00, 0x00, 0x00, 0x00,
 0x00, 0x00, 0x00, 0x00, 0x00, 0x00, 0x00, 0x00, 0x00, 0x00, 0x00, 0x00,
 0x00, 0x00, 0x00, 0x00, 0x00, 0x00, 0x00, 0x00, 0x00, 0x00, 0x00, 0x00,
 0x00, 0x00, 0x00, 0x00, 0x00, 0x00, 0x00, 0x00, 0x00, 0x00, 0x00, 0x00,
 0x00, 0x00, 0x00, 0x00, 0x00, 0x00, 0x00, 0x00, 0x00, 0x00, 0x00, 0x00,
 0x00, 0x00, 0x00, 0x00, 0x00, 0x00, 0x00, 0x00, 0x00, 0x00, 0x00, 0x00,
 0x00, 0x00, 0x00, 0x00, 0x00, 0x00, 0x00, 0x00, 0x00, 0x00, 0x00, 0x00,
 0x00, 0x00, 0x00, 0x00, 0x00, 0x00, 0x00, 0x00, 0x00, 0x00, 0x00, 0x00,
 0x00, 0x00, 0x00, 0x00, 0x00, 0x00, 0x00, 0x00, 0x00, 0x00, 0x00, 0x00,
 0x00, 0x00, 0x00, 0x00, 0x00, 0x00, 0x00, 0x00, 0x00, 0x00, 0x00, 0x00,
 0x00, 0x00, 0x00, 0x00, 0x00, 0x00, 0x00, 0x00, 0x00, 0x00, 0x00, 0x00,
 0x00, 0x00, 0x00, 0x00, 0x00, 0x00, 0x00, 0x00, 0x00, 0x00, 0x00, 0x00,
 0x00, 0x00, 0x00, 0x00, 0x00, 0x00, 0x00, 0x00, 0x00, 0x00, 0x00, 0x00,
 0x00, 0x00, 0x00, 0x00, 0x00, 0x00, 0x00, 0x00, 0x00, 0x00, 0x00, 0x00,
 0x00, 0x00, 0x00, 0x00, 0x00, 0x00, 0x00, 0x00, 0x00, 0x00, 0x00, 0x00,
 0x00, 0x00, 0x00, 0x00, 0x00, 0x00, 0x00, 0x00, 0x00, 0x00, 0x00, 0x00,
 0x00, 0x00, 0x00, 0x00, 0x00, 0x00, 0xfc, 0x00, 0x00, 0x00, 0x00, 0x00,
 0x00, 0x00, 0x00, 0x00, 0x00, 0x00, 0x00, 0x00, 0x00, 0x00, 0x00, 0x00,
 0x00, 0x00, 0x00, 0x00, 0x00, 0x00, 0x00, 0x00, 0x00, 0x00, 0x00, 0x00,
 0x00, 0x00, 0x00, 0x00, 0x00, 0x00, 0x00, 0x00, 0x00, 0x00, 0x00, 0x00,
 0x00, 0x00, 0x00, 0x00, 0x00, 0x00, 0x00, 0x00, 0x00, 0x00, 0x00, 0x00,
 0x00, 0x00, 0x00, 0x00, 0x00, 0x00, 0x00, 0x00, 0x00, 0x00, 0x00, 0x00,
 0x00, 0x00, 0x00, 0x00, 0x00, 0x00, 0x00, 0x00, 0x00, 0x00, 0x00, 0x00,
 0x00, 0x00, 0x00, 0x00, 0x00, 0x00, 0x00, 0x00, 0x00, 0x00, 0x00, 0x00,
 0x00, 0x00, 0x00, 0x00, 0x00, 0x00, 0x00, 0x00, 0x00, 0x00, 0x00, 0x00,
 0x00, 0x00, 0x00, 0x00, 0x00, 0x00, 0x00, 0x00, 0x00, 0x00, 0x00, 0x00,
 0x00, 0x00, 0x00, 0x00, 0x00, 0x00, 0x00, 0x08, 0x00, 0x00, 0x00, 0x00,
 0x00, 0x00, 0x00, 0x00, 0x00, 0x00, 0x00, 0x00, 0x00, 0x00, 0x00, 0x00,
 0x00, 0x00, 0x00, 0x00, 0x00, 0x80, 0x00, 0x00, 0x00, 0x30, 0x00, 0x2d,
 0xc0, 0x0e, 0x20, 0x00, 0x30, 0x00, 0x0a, 0x00, 0x3e, 0x20, 0x00, 0x00,
 0x00, 0x00, 0x00, 0x00, 0x80, 0x0f, 0x00, 0x00, 0x04, 0x00, 0x00, 0x20,
 0x00, 0x0c, 0x00, 0x04, 0x00, 0x00, 0xc0, 0x01, 0x00, 0x00, 0x00, 0x80,
 0x00, 0x60, 0x00, 0x00, 0x00, 0x02, 0x81, 0x40, 0x30, 0x10, 0x20, 0x00,
 0x00, 0x00, 0x00, 0x00, 0x00, 0x48, 0x00, 0x12, 0x40, 0x04, 0x20, 0x00,
 0x48, 0x00, 0x00, 0x00, 0x41, 0x40, 0x00, 0x00, 0x00, 0x00, 0x00, 0x00,
 0x40, 0x10, 0x00, 0x00, 0x0a, 0x00, 0x00, 0x50, 0x00, 0x10, 0x00, 0x02,
 0x00, 0x00, 0xe0, 0x01, 0x00, 0x00, 0x00, 0xc0, 0x00, 0x60, 0x00, 0x00,
 0x00, 0x83, 0xc0, 0x20, 0x40, 0x08, 0x00, 0x00, 0x00, 0x00, 0x00, 0x00,
 0x00, 0x08, 0x00, 0x12, 0xc0, 0x07, 0x20, 0x00, 0x08, 0x00, 0x00, 0x80,
 0x9c, 0x60, 0x00, 0x00, 0x00, 0x00, 0x00, 0x00, 0xa0, 0x27, 0x00, 0x00,
 0x04, 0x00, 0x02, 0x40, 0x00, 0x08, 0x00, 0x00, 0x00, 0x00, 0xe0, 0x01,
 0x00, 0x00, 0x00, 0x80, 0x00, 0x60, 0x00, 0x00, 0x00, 0x42, 0x80, 0x10,
 0x20, 0x04, 0x00, 0x00, 0x00, 0x80, 0x00, 0x00, 0x02, 0x08, 0x00, 0x2d,
 0x80, 0x02, 0x20, 0x00, 0x10, 0x00, 0x00, 0x80, 0xa2, 0x60, 0x00, 0x00,
 0x00, 0x00, 0x00, 0x00, 0xa0, 0x28, 0x00, 0x00, 0x00, 0x00, 0x02, 0x20,
 0x00, 0x10, 0x00, 0x00, 0x00, 0x00, 0xe0, 0x01, 0x00, 0x00, 0x00, 0x80,
 0x00, 0x60, 0x00, 0x00, 0x00, 0x22, 0x80, 0x08, 0x40, 0x02, 0x20, 0x00,
 0x00, 0x80, 0x00, 0xc0, 0x01, 0x10, 0x00, 0x00, 0xc0, 0x07, 0x20, 0x00,
 0x28, 0x00, 0x00, 0x80, 0x82, 0x00, 0x00, 0x00, 0x00, 0x3e, 0x00, 0x00,
 0xa0, 0x28, 0x00, 0x00, 0x00, 0x80, 0x0f, 0x10, 0x00, 0x10, 0x00, 0x00,
 0x80, 0x08, 0xc0, 0x01, 0x00, 0x00, 0x00, 0x80, 0x00, 0x00, 0x00, 0x00,
 0x00, 0x12, 0x81, 0x24, 0x40, 0x11, 0x20, 0x00, 0x00, 0x80, 0x00, 0x20,
 0x03, 0x78, 0x00, 0x00, 0x00, 0x01, 0x00, 0x00, 0x48, 0x00, 0x00, 0x80,
 0x82, 0x60, 0x00, 0xa0, 0x00, 0x20, 0xc0, 0x03, 0xa0, 0x27, 0x00, 0x00,
 0x00, 0x00, 0x02, 0x70, 0x00, 0x0c, 0x00, 0x00, 0x80, 0x08, 0x00, 0x01,
 0x08, 0x00, 0x00, 0xc0, 0x01, 0x60, 0x00, 0x28, 0x00, 0x97, 0xc1, 0x55,
 0x30, 0x19, 0x10, 0x00, 0x00, 0x80, 0x00, 0xa0, 0x00, 0x10, 0x00, 0x00,
 0x00, 0x01, 0x00, 0x00, 0x48, 0x00, 0x00, 0x80, 0xa2, 0x00, 0x00, 0x50,
 0x00, 0x00, 0x00, 0x00, 0xa0, 0x24, 0x00, 0x00, 0x00, 0x00, 0x02, 0x00,
 0x00, 0x00, 0x00, 0x00, 0x80, 0x08, 0x00, 0x01, 0x00, 0x00, 0x00, 0x00,
 0x00, 0x00, 0x00, 0x50, 0x00, 0x48, 0x01, 0x42, 0x80, 0x14, 0x08, 0x00,
 0x00, 0x80, 0x00, 0xa0, 0x00, 0x10, 0x00, 0x00, 0x00, 0x01, 0x00, 0x00,
 0x50, 0x00, 0x00, 0x80, 0x9c, 0x00, 0x00, 0x28, 0x00, 0x00, 0x00, 0x00,
 0xa0, 0x28, 0x00, 0x00, 0x00, 0x00, 0x00, 0x00, 0x00, 0x00, 0x00, 0x00,
 0x80, 0x08, 0x00, 0x01, 0x00, 0x00, 0x00, 0x00, 0x00, 0x00, 0x00, 0xa0,
 0x00, 0x44, 0x01, 0x21, 0x40, 0x14, 0x08, 0x00, 0x00, 0x80, 0x00, 0x60,
 0x02, 0x90, 0x00, 0x00, 0x00, 0x01, 0x20, 0x00, 0x20, 0x00, 0x00, 0x00,
 0x41, 0x00, 0x00, 0x50, 0x00, 0x00, 0x00, 0x00, 0x40, 0x10, 0x00, 0x00,
 0x00, 0x00, 0x00, 0x00, 0x00, 0x00, 0x00, 0x00, 0x80, 0x08, 0x00, 0x01,
 0x00, 0x00, 0x00, 0x00, 0x00, 0x00, 0x00, 0x50, 0x00, 0xc2, 0x81, 0x10,
 0x20, 0x1c, 0x48, 0x00, 0x00, 0x80, 0x00, 0xc0, 0x01, 0x68, 0x00, 0x00,
 0x80, 0x03, 0x20, 0x00, 0x40, 0x00, 0x00, 0x00, 0x3e, 0x00, 0x00, 0xa0,
 0x00, 0x00, 0x00, 0x00, 0x80, 0x0f, 0x00, 0x00, 0x00, 0x80, 0x0f, 0x00,
 0x00, 0x00, 0x00, 0x00, 0x80, 0x37, 0x00, 0x01, 0x00, 0x00, 0x02, 0x00,
 0x00, 0x00, 0x00, 0x28, 0x00, 0x01, 0x41, 0x70, 0x10, 0x10, 0x30, 0x00,
 0x00, 0x00, 0x00, 0x20, 0x00, 0x00, 0x00, 0x00, 0x00, 0x00, 0x20, 0x00,
 0x48, 0x00, 0x00, 0x00, 0x00, 0x00, 0x00, 0x00, 0x00, 0x00, 0x00, 0x00,
 0x00, 0x00, 0x00, 0x00, 0x00, 0x00, 0x00, 0x00, 0x00, 0x00, 0x00, 0x00,
 0x80, 0x00, 0x00, 0x00, 0x00, 0x00, 0x04, 0x00, 0x00, 0x00, 0x00, 0x00,
 0x00, 0x00, 0x00, 0x00, 0x00, 0x00, 0x00, 0x00, 0x00, 0x00, 0x00, 0x00,
 0x00, 0x00, 0x00, 0x00, 0x00, 0x00, 0x20, 0x00, 0x30, 0x00, 0x00, 0x00,
 0x00, 0x00, 0x00, 0x00, 0x00, 0x00, 0x00, 0x00, 0x00, 0x00, 0x00, 0x00,
 0x00, 0x00, 0x00, 0x00, 0x00, 0x00, 0x00, 0x00, 0x80, 0x00, 0x00, 0x00,
 0x00, 0x00, 0x02, 0x00, 0x00, 0x00, 0x00, 0x00, 0x00, 0x00, 0x00, 0x00,
 0x00, 0x00, 0x00, 0x00, 0x00, 0x00, 0x00, 0x00, 0x00, 0x00, 0x00, 0x00,
 0x00, 0x00, 0x20, 0x00, 0x00, 0x00, 0x00, 0x00, 0x00, 0x00, 0x00, 0x00,
 0x00, 0x00, 0x00, 0x00, 0x00, 0x00, 0x00, 0x00, 0x00, 0x00, 0x00, 0x00,
 0x00, 0x00, 0x00, 0x00, 0x80, 0x00, 0x00, 0x00, 0x00, 0x00, 0x00, 0x00,
 0x00, 0x00, 0x00, 0x00, 0x00, 0x00, 0x00, 0x00, 0x00, 0x00, 0x00, 0x00,
 0x08, 0x00, 0x08, 0x00, 0x01, 0x60, 0x01, 0x00, 0x00, 0x04, 0x00, 0x00,
 0x00, 0x00, 0x08, 0x00, 0x08, 0x00, 0x01, 0x00, 0x00, 0x02, 0x00, 0x02,
 0x40, 0x00, 0x00, 0x00, 0x00, 0x00, 0x26, 0x80, 0x00, 0x00, 0x01, 0x30,
 0x00, 0x26, 0x00, 0x00, 0x00, 0x00, 0x00, 0x00, 0x02, 0x00, 0x04, 0xc0,
 0x00, 0x00, 0x00, 0x08, 0x00, 0x00, 0x00, 0x00, 0x10, 0x00, 0x04, 0x80,
 0x02, 0xd0, 0x00, 0x44, 0x00, 0x0a, 0x00, 0x00, 0x00, 0x00, 0x10, 0x00,
 0x04, 0x80, 0x02, 0x10, 0x01, 0x04, 0x00, 0x01, 0xa0, 0x00, 0x44, 0x00,
 0x00, 0x00, 0x19, 0x00, 0x01, 0x80, 0x00, 0x48, 0x00, 0x19, 0x80, 0x04,
 0x00, 0x00, 0x00, 0x00, 0x04, 0x00, 0x02, 0x20, 0x01, 0x48, 0x00, 0x04,
 0x00, 0x00, 0x00, 0x00, 0x20, 0x00, 0x02, 0x40, 0x04, 0x00, 0x00, 0x00,
 0x00, 0x04, 0x00, 0x00, 0x00, 0x00, 0x20, 0x00, 0x02, 0x40, 0x04, 0x00,
 0x00, 0x08, 0x80, 0x00, 0x10, 0x01, 0x00, 0x00, 0x00, 0x00, 0x00, 0x00,
 0x02, 0x40, 0x00, 0x84, 0x00, 0x00, 0x00, 0x00, 0x00, 0x00, 0x00, 0x00,
 0x08, 0x00, 0x01, 0x10, 0x02, 0x00, 0x00, 0x02, 0x00, 0x00, 0x00, 0x00,
 0x10, 0x00, 0x04, 0x00, 0x01, 0x40, 0x00, 0x10, 0x00, 0x00, 0x00, 0x7e,
 0xe0, 0x05, 0x7e, 0x80, 0x1f, 0xe0, 0x07, 0xf8, 0x01, 0x0e, 0x80, 0x03,
 0xe0, 0x00, 0x38, 0x00, 0x3e, 0x80, 0x71, 0x80, 0x07, 0xe0, 0x01, 0x78,
 0x00, 0x1e, 0x80, 0x07, 0x00, 0x00, 0x78, 0x82, 0x73, 0xe0, 0x1c, 0x38,
 0x07, 0xce, 0xc1, 0x71, 0xe0, 0x00, 0x70, 0x00, 0x10, 0x00, 0x04, 0x00,
 0x01, 0x40, 0x00, 0x10, 0x00, 0x04, 0x00, 0x45, 0x10, 0x06, 0x44, 0x00,
 0x11, 0x40, 0x04, 0x10, 0x01, 0x04, 0x00, 0x01, 0x40, 0x00, 0x10, 0x00,
 0xc4, 0x00, 0x23, 0x40, 0x08, 0x10, 0x02, 0x84, 0x00, 0x21, 0x40, 0x08,
 0x00, 0x00, 0x84, 0x01, 0x21, 0x40, 0x08, 0x10, 0x02, 0x84, 0x80, 0x20,
 0x40, 0x00, 0x88, 0x00, 0x28, 0x00, 0x0a, 0x80, 0x02, 0xa0, 0x00, 0x28,
 0x00, 0x0a, 0x00, 0x05, 0x08, 0x04, 0x04, 0x00, 0x01, 0x40, 0x00, 0x10,
 0x00, 0x04, 0x00, 0x01, 0x40, 0x00, 0x10, 0x00, 0x84, 0x00, 0x23, 0x20,
 0x10, 0x08, 0x04, 0x02, 0x81, 0x40, 0x20, 0x10, 0x00, 0x00, 0x82, 0x01,
 0x21, 0x40, 0x08, 0x10, 0x02, 0x84, 0x00, 0x11, 0xc0, 0x03, 0x88, 0x00,
 0x28, 0x00, 0x0a, 0x80, 0x02, 0xa0, 0x00, 0x28, 0x00, 0x0a, 0x80, 0x24,
 0x08, 0x00, 0x24, 0x00, 0x09, 0x40, 0x02, 0x90, 0x00, 0x04, 0x00, 0x01,
 0x40, 0x00, 0x10, 0x00, 0x04, 0x01, 0x25, 0x20, 0x10, 0x08, 0x04, 0x02,
 0x81, 0x40, 0x20, 0x10, 0x88, 0x00, 0x42, 0x01, 0x21, 0x40, 0x08, 0x10,
 0x02, 0x84, 0x00, 0x11, 0x40, 0x04, 0x88, 0x00, 0x44, 0x00, 0x11, 0x40,
 0x04, 0x10, 0x01, 0x44, 0x00, 0x11, 0x80, 0x3c, 0x08, 0x00, 0x3c, 0x00,
 0x0f, 0xc0, 0x03, 0xf0, 0x00, 0x04, 0x00, 0x01, 0x40, 0x00, 0x10, 0x00,
 0x0e, 0x01, 0x25, 0x20, 0x10, 0x08, 0x04, 0x02, 0x81, 0x40, 0x20, 0x10,
 0x50, 0x00, 0x22, 0x01, 0x21, 0x40, 0x08, 0x10, 0x02, 0x84, 0x00, 0x0a,
 0x40, 0x04, 0x48, 0x00, 0x44, 0x00, 0x11, 0x40, 0x04, 0x10, 0x01, 0x44,
 0x00, 0x11, 0x40, 0x24, 0x08, 0x00, 0x24, 0x00, 0x09, 0x40, 0x02, 0x90,
 0x00, 0x04, 0x00, 0x01, 0x40, 0x00, 0x10, 0x00, 0x04, 0x01, 0x29, 0x20,
 0x10, 0x08, 0x04, 0x02, 0x81, 0x40, 0x20, 0x10, 0x20, 0x00, 0x12, 0x01,
 0x21, 0x40, 0x08, 0x10, 0x02, 0x84, 0x00, 0x04, 0x40, 0x04, 0x88, 0x00,
 0x7c, 0x00, 0x1f, 0xc0, 0x07, 0xf0, 0x01, 0x7c, 0x00, 0x1f, 0xc0, 0x07,
 0x08, 0x00, 0x04, 0x00, 0x01, 0x40, 0x00, 0x10, 0x00, 0x04, 0x00, 0x01,
 0x40, 0x00, 0x10, 0x00, 0x04, 0x01, 0x29, 0x20, 0x10, 0x08, 0x04, 0x02,
 0x81, 0x40, 0x20, 0x10, 0x50, 0x00, 0x0a, 0x01, 0x21, 0x40, 0x08, 0x10,
 0x02, 0x84, 0x00, 0x04, 0x40, 0x04, 0x88, 0x00, 0x82, 0x80, 0x20, 0x20,
 0x08, 0x08, 0x02, 0x82, 0x80, 0x20, 0x20, 0x04, 0x08, 0x04, 0x04, 0x00,
 0x01, 0x40, 0x00, 0x10, 0x00, 0x04, 0x00, 0x01, 0x40, 0x00, 0x10, 0x00,
 0x84, 0x00, 0x31, 0x20, 0x10, 0x08, 0x04, 0x02, 0x81, 0x40, 0x20, 0x10,
 0x88, 0x00, 0x06, 0x01, 0x21, 0x40, 0x08, 0x10, 0x02, 0x84, 0x00, 0x04,
 0xc0, 0x03, 0x88, 0x00, 0x82, 0x80, 0x20, 0x20, 0x08, 0x08, 0x02, 0x82,
 0x80, 0x20, 0x20, 0x44, 0x10, 0x02, 0x44, 0x00, 0x11, 0x40, 0x04, 0x10,
 0x01, 0x04, 0x00, 0x01, 0x40, 0x00, 0x10, 0x00, 0xc4, 0x00, 0x31, 0x40,
 0x08, 0x10, 0x02, 0x84, 0x00, 0x21, 0x40, 0x08, 0x00, 0x00, 0x86, 0x00,
 0x21, 0x40, 0x08, 0x10, 0x02, 0x84, 0x00, 0x04, 0x40, 0x00, 0x88, 0x00,
 0xc7, 0xc1, 0x71, 0x70, 0x1c, 0x1c, 0x07, 0xc7, 0xc1, 0x71, 0x70, 0x7e,
 0xe0, 0x01, 0x7e, 0x80, 0x1f, 0xe0, 0x07, 0xf8, 0x01, 0x0e, 0x80, 0x03,
 0xe0, 0x00, 0x38, 0x00, 0x3e, 0x80, 0x23, 0x80, 0x07, 0xe0, 0x01, 0x78,
 0x00, 0x1e, 0x80, 0x07, 0x00, 0x00, 0x79, 0x00, 0x1e, 0x80, 0x07, 0xe0,
 0x01, 0x78, 0x00, 0x0e, 0xe0, 0x00, 0x68, 0x00, 0x00, 0x00, 0x00, 0x00,
 0x00, 0x00, 0x00, 0x00, 0x00, 0x00, 0x00, 0x00, 0x40, 0x00, 0x00, 0x00,
 0x00, 0x00, 0x00, 0x00, 0x00, 0x00, 0x00, 0x00, 0x00, 0x00, 0x00, 0x00,
 0x00, 0x00, 0x00, 0x00, 0x00, 0x00, 0x00, 0x00, 0x00, 0x00, 0x00, 0x00,
 0x00, 0x00, 0x00, 0x00, 0x00, 0x00, 0x00, 0x00, 0x00, 0x00, 0x00, 0x00,
 0x00, 0x00, 0x00, 0x00, 0x00, 0x00, 0x00, 0x00, 0x00, 0x00, 0x00, 0x00,
 0x00, 0x00, 0x00, 0x00, 0x80, 0x00, 0x00, 0x00, 0x00, 0x00, 0x00, 0x00,
 0x00, 0x00, 0x00, 0x00, 0x00, 0x00, 0x00, 0x00, 0x00, 0x00, 0x00, 0x00,
 0x00, 0x00, 0x00, 0x00, 0x00, 0x00, 0x00, 0x00, 0x00, 0x00, 0x00, 0x00,
 0x00, 0x00, 0x00, 0x00, 0x00, 0x00, 0x00, 0x00, 0x00, 0x00, 0x00, 0x00,
 0x00, 0x00, 0x00, 0x00, 0x00, 0x00, 0x00, 0x00, 0x00, 0x00, 0x00, 0x00,
 0x40, 0x00, 0x00, 0x00, 0x00, 0x00, 0x00, 0x00, 0x00, 0x00, 0x00, 0x00,
 0x00, 0x00, 0x00, 0x00, 0x00, 0x00, 0x00, 0x00, 0x00, 0x00, 0x00, 0x00,
 0x00, 0x00, 0x00, 0x00, 0x00, 0x00, 0x00, 0x00, 0x00, 0x00, 0x00, 0x00,
 0x00, 0x00, 0x00, 0x00, 0x00, 0x00, 0x00, 0x00, 0x00, 0x00, 0x00, 0x00,
 0x00, 0x00, 0x00, 0x00, 0x00, 0x00, 0x00, 0x00, 0x00, 0x00, 0x00, 0x00,
 0x00, 0x00, 0x00, 0x00, 0x00, 0x00, 0x00, 0x00, 0x00, 0x00, 0x00, 0x00,
 0x00, 0x00, 0x00, 0x00, 0x00, 0x00, 0x00, 0x00, 0x00, 0x00, 0x00, 0x00,
 0x00, 0x00, 0x00, 0x00, 0x00, 0x00, 0x00, 0x00, 0x00, 0x00, 0x00, 0x00,
 0x00, 0x00, 0x00, 0x00, 0x00, 0x00, 0x00, 0x00, 0x00, 0x00, 0x00, 0x00,
 0x00, 0x02, 0x00, 0x00, 0x00, 0x00, 0x00, 0x00, 0x00, 0x00, 0x00, 0x00,
 0x00, 0x00, 0x00, 0x00, 0x00, 0x00, 0x00, 0x00, 0x00, 0x00, 0x00, 0x00,
 0x00, 0x00, 0x00, 0x00, 0x00, 0x00, 0x00, 0x00, 0x00, 0x00, 0x00, 0x00,
 0x00, 0x00, 0x00, 0x00, 0x00, 0x00, 0x00, 0x00, 0x00, 0x00, 0x00, 0x00,
 0x02, 0x00, 0x04, 0x80, 0x00, 0x00, 0x00, 0x00, 0x00, 0x05, 0x00, 0x00,
 0x00, 0x00, 0x04, 0x00, 0x04, 0x80, 0x00, 0x00, 0x00, 0x00, 0x00, 0x00,
 0x00, 0x00, 0x00, 0x00, 0x00, 0x00, 0x00, 0x40, 0x00, 0x40, 0x00, 0x08,
 0x00, 0x00, 0x00, 0x00, 0x00, 0x00, 0x00, 0x00, 0x01, 0x00, 0x01, 0x20,
 0x00, 0x00, 0x00, 0x04, 0x00, 0x00, 0x00, 0x00, 0x04, 0x00, 0x02, 0x40,
 0x01, 0xb0, 0x00, 0x00, 0x00, 0x05, 0x00, 0x00, 0x00, 0x00, 0x08, 0x00,
 0x02, 0x40, 0x01, 0x00, 0x00, 0x01, 0x00, 0x01, 0x20, 0x00, 0x00, 0x00,
 0x0a, 0x00, 0x0b, 0x80, 0x00, 0x20, 0x00, 0x14, 0x00, 0x0b, 0x00, 0x00,
 0x00, 0x00, 0x00, 0x00, 0x02, 0x80, 0x00, 0x50, 0x00, 0x00, 0x00, 0x02,
 0x30, 0x00, 0x00, 0x00, 0x08, 0x00, 0x01, 0x20, 0x02, 0x68, 0x00, 0x12,
 0x00, 0x02, 0x00, 0x00, 0x00, 0x00, 0x10, 0x00, 0x01, 0x20, 0x02, 0x88,
 0x00, 0x02, 0x80, 0x00, 0x50, 0x00, 0x14, 0x00, 0x04, 0x80, 0x06, 0x00,
 0x01, 0x10, 0x00, 0x22, 0x80, 0x06, 0x20, 0x02, 0x00, 0x00, 0x00, 0x00,
 0x04, 0x40, 0x00, 0x88, 0x00, 0x22, 0x00, 0x01, 0x20, 0x00, 0x88, 0x00,
 0x00, 0x00, 0x00, 0x00, 0x00, 0x00, 0x00, 0x00, 0x00, 0x00, 0x00, 0x00,
 0x00, 0x00, 0x00, 0x00, 0x00, 0x00, 0x00, 0x00, 0x00, 0x00, 0x00, 0x00,
 0x00, 0x00, 0x00, 0x00, 0x0a, 0x00, 0x00, 0x00, 0x00, 0x00, 0x00, 0x00,
 0x00, 0x00, 0x00, 0x00, 0x00, 0x00, 0x00, 0x00, 0x00, 0x00, 0x00, 0x00,
 0x00, 0x00, 0x00, 0x00, 0x20, 0x00, 0x00, 0x00, 0x0c, 0x00, 0x03, 0xc0,
 0x00, 0x30, 0x00, 0x0c, 0x00, 0x03, 0xc0, 0x06, 0x70, 0x00, 0x1c, 0x00,
 0x07, 0xc0, 0x01, 0x70, 0x00, 0x03, 0xc0, 0x00, 0x30, 0x00, 0x0c, 0x00,
 0x10, 0xc0, 0x06, 0xc0, 0x01, 0x70, 0x00, 0x1c, 0x00, 0x07, 0xc0, 0x01,
 0x20, 0x00, 0x3c, 0xc0, 0x0c, 0x30, 0x03, 0xcc, 0x00, 0x33, 0xc0, 0x1d,
 0xa0, 0x01, 0xdc, 0x01, 0x10, 0x00, 0x04, 0x00, 0x01, 0x40, 0x00, 0x10,
 0x00, 0x04, 0x00, 0x09, 0x88, 0x00, 0x22, 0x80, 0x08, 0x20, 0x02, 0x88,
 0x00, 0x02, 0x80, 0x00, 0x20, 0x00, 0x08, 0x00, 0x3c, 0x80, 0x09, 0x20,
 0x02, 0x88, 0x00, 0x22, 0x80, 0x08, 0x20, 0x02, 0x00, 0x00, 0x32, 0x80,
 0x08, 0x20, 0x02, 0x88, 0x00, 0x22, 0x80, 0x08, 0x60, 0x02, 0x88, 0x00,
 0x1c, 0x00, 0x07, 0xc0, 0x01, 0x70, 0x00, 0x1c, 0x00, 0x07, 0xc0, 0x0f,
 0x08, 0x00, 0x3e, 0x80, 0x0f, 0xe0, 0x03, 0xf8, 0x00, 0x02, 0x80, 0x00,
 0x20, 0x00, 0x08, 0x00, 0x22, 0x80, 0x08, 0x20, 0x02, 0x88, 0x00, 0x22,
 0x80, 0x08, 0x20, 0x02, 0xf8, 0x00, 0x2a, 0x80, 0x08, 0x20, 0x02, 0x88,
 0x00, 0x22, 0x80, 0x08, 0x20, 0x02, 0x88, 0x00, 0x12, 0x80, 0x04, 0x20,
 0x01, 0x48, 0x00, 0x12, 0x80, 0x04, 0x20, 0x01, 0x08, 0x00, 0x02, 0x80,
 0x00, 0x20, 0x00, 0x08, 0x00, 0x02, 0x80, 0x00, 0x20, 0x00, 0x08, 0x00,
 0x22, 0x80, 0x08, 0x20, 0x02, 0x88, 0x00, 0x22, 0x80, 0x08, 0x20, 0x02,
 0x00, 0x00, 0x2a, 0x80, 0x08, 0x20, 0x02, 0x88, 0x00, 0x22, 0x00, 0x05,
 0x20, 0x02, 0x50, 0x00, 0x12, 0x80, 0x04, 0x20, 0x01, 0x48, 0x00, 0x12,
 0x80, 0x04, 0x20, 0x01, 0x08, 0x00, 0x02, 0x80, 0x00, 0x20, 0x00, 0x08,
 0x00, 0x02, 0x80, 0x00, 0x20, 0x00, 0x08, 0x00, 0x22, 0x80, 0x08, 0x20,
 0x02, 0x88, 0x00, 0x22, 0x80, 0x08, 0x20, 0x02, 0x20, 0x00, 0x2a, 0x80,
 0x08, 0x20, 0x02, 0x88, 0x00, 0x22, 0x00, 0x05, 0x20, 0x02, 0x50, 0x00,
 0x12, 0x80, 0x04, 0x20, 0x01, 0x48, 0x00, 0x12, 0x80, 0x04, 0x20, 0x09,
 0x88, 0x00, 0x22, 0x80, 0x08, 0x20, 0x02, 0x88, 0x00, 0x02, 0x80, 0x00,
 0x20, 0x00, 0x08, 0x00, 0x22, 0x80, 0x08, 0x20, 0x02, 0x88, 0x00, 0x22,
 0x80, 0x08, 0x20, 0x02, 0x00, 0x00, 0x26, 0x80, 0x0c, 0x20, 0x03, 0xc8,
 0x00, 0x32, 0x00, 0x02, 0x20, 0x02, 0x20, 0x00, 0x2c, 0x00, 0x0b, 0xc0,
 0x02, 0xb0, 0x00, 0x2c, 0x00, 0x0b, 0xc0, 0x06, 0x70, 0x00, 0x1c, 0x00,
 0x07, 0xc0, 0x01, 0x70, 0x00, 0x06, 0x80, 0x01, 0x60, 0x00, 0x18, 0x00,
 0x1c, 0x80, 0x19, 0xc0, 0x01, 0x70, 0x00, 0x1c, 0x00, 0x07, 0xc0, 0x01,
 0x00, 0x00, 0x1e, 0x00, 0x1b, 0xc0, 0x06, 0xb0, 0x01, 0x6c, 0x00, 0x02,
 0xe0, 0x01, 0x20, 0x00, 0x00, 0x00, 0x00, 0x00, 0x00, 0x00, 0x00, 0x00,
 0x00, 0x00, 0x00, 0x00, 0x20, 0x00, 0x00, 0x00, 0x00, 0x00, 0x00, 0x00,
 0x00, 0x00, 0x00, 0x00, 0x00, 0x00, 0x00, 0x00, 0x00, 0x00, 0x00, 0x00,
 0x00, 0x00, 0x00, 0x00, 0x00, 0x00, 0x00, 0x00, 0x00, 0x00, 0x00, 0x00,
 0x00, 0x00, 0x00, 0x00, 0x00, 0x00, 0x00, 0x01, 0x20, 0x00, 0x10, 0x00,
 0x00, 0x00, 0x00, 0x00, 0x00, 0x00, 0x00, 0x00, 0x00, 0x00, 0x00, 0x00,
 0x40, 0x00, 0x00, 0x00, 0x00, 0x00, 0x00, 0x00, 0x00, 0x00, 0x00, 0x00,
 0x00, 0x00, 0x00, 0x00, 0x00, 0x00, 0x00, 0x00, 0x00, 0x00, 0x00, 0x00,
 0x00, 0x00, 0x00, 0x00, 0x00, 0x00, 0x00, 0x00, 0x00, 0x00, 0x00, 0x00,
 0x00, 0x00, 0x40, 0x01, 0x20, 0x00, 0x14, 0x00, 0x00, 0x00, 0x00, 0x00,
 0x00, 0x00, 0x00, 0x00, 0x00, 0x00, 0x00, 0x00, 0x20, 0x00, 0x00, 0x00,
 0x00, 0x00, 0x00, 0x00, 0x00, 0x00, 0x00, 0x00, 0x00, 0x00, 0x00, 0x00,
 0x00, 0x00, 0x00, 0x00, 0x00, 0x00, 0x00, 0x00, 0x00, 0x00, 0x00, 0x00,
 0x00, 0x00, 0x00, 0x00, 0x00, 0x00, 0x00, 0x00, 0x00, 0x00, 0xc0, 0x00,
 0x70, 0x00, 0x0c, 0x00};
